inDegrees=yes
name=ik_S51_A12_T02
DataType=double
version=3
OpenSimVersion=4.3-2021-08-27-4bc7ad9
endheader
time	pelvis_tilt	pelvis_list	pelvis_rotation	pelvis_tx	pelvis_ty	pelvis_tz	hip_flexion_r	hip_adduction_r	hip_rotation_r	knee_angle_r	knee_angle_r_beta	ankle_angle_r	subtalar_angle_r	mtp_angle_r	hip_flexion_l	hip_adduction_l	hip_rotation_l	knee_angle_l	knee_angle_l_beta	ankle_angle_l	subtalar_angle_l	mtp_angle_l	lumbar_extension	lumbar_bending	lumbar_rotation	arm_flex_r	arm_add_r	arm_rot_r	elbow_flex_r	pro_sup_r	wrist_flex_r	wrist_dev_r	arm_flex_l	arm_add_l	arm_rot_l	elbow_flex_l	pro_sup_l	wrist_flex_l	wrist_dev_l
9.119999999999894	0.8446614909267248	3.536660598768263	31.30782566709546	0	0.9399999999999999	0	29.09023821862131	-9.233609887192602	-8.413439688959112	32.48181657129979	0.5669146461980368	0	0	0	29.09023821862131	-9.233609887192602	-8.413439688959112	32.48181657129979	0.5669146461980368	0	0	0	2.931688103045711	2.411356155783884	11.94146693709025	-0.7673155230678927	-8.448604520146008	-10.71779338108365	2.11532068748392	155.098256168011	0	0	98.54972049373978	0.6304480264813201	3.508522023823248	38.02555754133548	55.43757670320598	0	0
9.139999999999894	0.8484809342510439	3.535783674269515	31.34157824500623	0	0.9399999999999999	0	29.09226248787269	-9.233933731316414	-8.41387080025749	32.48390659735658	0.5669511240341802	0	0	0	29.09226248787269	-9.233933731316414	-8.41387080025749	32.48390659735658	0.5669511240341802	0	0	0	2.934592396039805	2.408446185013711	11.93816589712123	-0.7824933379845223	-8.45837991482084	-10.69165339042257	2.133334099047653	155.1081788709754	0	0	98.58511124119063	0.5818727498951558	3.620517905701826	38.0119198427699	55.51897992419777	0	0
9.159999999999894	0.8549296885711373	3.519892732563276	31.36144279076824	0	0.9399999999999999	0	29.09669281705215	-9.234646385397051	-8.414817695622373	32.48845735198237	0.5670305496858506	0	0	0	29.09669281705215	-9.234646385397051	-8.414817695622373	32.48845735198237	0.5670305496858506	0	0	0	2.932713827130994	2.390079205375564	11.91870786404771	-0.7820904949430812	-8.417510805629762	-10.58079604211013	2.186570409947219	155.0424740519905	0	0	98.60976604063417	0.5267204405244896	3.749582321012071	38.00722942653704	55.67834008778225	0	0
9.179999999999893	0.8567683860256666	3.518255441214895	31.39153884018671	0	0.9399999999999999	0	29.12882253524468	-9.238500890647797	-8.42071424589659	32.52231018017088	0.5676213929988521	0	0	0	29.12882253524468	-9.238500890647797	-8.42071424589659	32.52231018017088	0.5676213929988521	0	0	0	2.932977225719537	2.387836970619545	11.89996593162793	-0.7887217579812684	-8.425731491074746	-10.57505235335471	2.227075573707332	155.006361793793	0	0	98.61596298412893	0.4839377925161971	3.837318796307282	38.02697149565557	55.7885525970929	0	0
9.199999999999893	0.8655772256281069	3.514841114343997	31.42712071282428	0	0.9399999999999999	0	29.17389575056259	-9.243828905293595	-8.428923713427654	32.56986128457204	0.5684513163336119	0	0	0	29.17389575056259	-9.243828905293595	-8.428923713427654	32.56986128457204	0.5684513163336119	0	0	0	2.937834756474822	2.3808071126014	11.87882297300406	-0.8180483505395468	-8.415445935539193	-10.49585785699215	2.272968890484836	154.9137780626111	0	0	98.60221175516034	0.4973878758788212	3.869482107333447	38.04514276160066	55.94543049386295	0	0
9.219999999999892	0.8726431877510621	3.494087340785251	31.47299312364632	0	0.9399999999999999	0	29.17685167673851	-9.244297427028888	-8.429550054313204	32.57291968711199	0.5685046955277854	0	0	0	29.17685167673851	-9.244297427028888	-8.429550054313204	32.57291968711199	0.5685046955277854	0	0	0	2.932691640372621	2.359944196111189	11.88384027501899	-0.8060634339417649	-8.384174157135952	-10.54439641763657	2.29390672009935	154.9524072349571	0	0	98.60874562943154	0.5072996089256429	4.009071190859822	38.04919513314417	56.05916906256373	0	0
9.239999999999892	0.8772115883475012	3.490406830377834	31.50403819246133	0	0.9399999999999999	0	29.18016120343558	-9.244825267345695	-8.430254144937852	32.57632440230059	0.5685641190179191	0	0	0	29.18016120343558	-9.244825267345695	-8.430254144937852	32.57632440230059	0.5685641190179191	0	0	0	2.935044451803499	2.353770866689733	11.87420651580272	-0.8221708841128128	-8.355649261146842	-10.43935932245421	2.331669203368451	154.9151051534047	0	0	98.61178519007437	0.4630298118417486	4.155217991888129	38.05088551148996	56.10967314350843	0	0
9.259999999999891	0.8919945096213324	3.48065012879943	31.55541628993739	0	0.9399999999999999	0	29.22106098754976	-9.24959741540526	-8.43765639570764	32.61951973619763	0.5693180198159208	0	0	0	29.22106098754976	-9.24959741540526	-8.43765639570764	32.61951973619763	0.5693180198159208	0	0	0	2.94101358095449	2.339370317183847	11.86939659947143	-0.8207801594445923	-8.32623418704372	-10.36022820220038	2.401147752325884	154.8157993187113	0	0	98.60229472695912	0.4909682117867688	4.186247640001148	38.07310904177783	56.19487991498935	0	0
9.279999999999891	0.8966344753498078	3.464496171193388	31.59209672178558	0	0.9399999999999999	0	29.25535263065995	-9.253651947175349	-8.443898761943858	32.65571029627438	0.5699496642474009	0	0	0	29.25535263065995	-9.253651947175349	-8.443898761943858	32.65571029627438	0.5699496642474009	0	0	0	2.935907498851779	2.32345532535972	11.85194624354128	-0.8015196559124731	-8.296692304621731	-10.26883663137562	2.472860877951318	154.7934175248904	0	0	98.62711057286033	0.5137706890798757	4.209099652077971	38.00839236229007	56.36683388297863	0	0
9.299999999999891	0.900440947105997	3.456724063753036	31.62803707608368	0	0.9399999999999999	0	29.27721318477612	-9.256321960756004	-8.447938032542963	32.67873035850611	0.5703514401273585	0	0	0	29.27721318477612	-9.256321960756004	-8.447938032542963	32.67873035850611	0.5703514401273585	0	0	0	2.934414360432351	2.315475329803569	11.84655866344029	-0.7772497087223672	-8.298821370892401	-10.21629237241216	2.514133922465557	154.7853217027466	0	0	98.59821541333984	0.5494737745209128	4.250945795312552	37.94404622252883	56.45787448470219	0	0
9.31999999999989	0.8961335546044927	3.441405804411161	31.6620308422258	0	0.9399999999999999	0	29.27932345433517	-9.256654341958654	-8.448383837624	32.68090995923971	0.5703894813365387	0	0	0	29.27932345433517	-9.256654341958654	-8.448383837624	32.68090995923971	0.5703894813365387	0	0	0	2.922442685659861	2.30509753381713	11.84981367742352	-0.7435727973095068	-8.258399054945231	-10.13936903340354	2.576767300551264	154.7665435964216	0	0	98.57457689450463	0.5706691075852931	4.307537337743592	37.91289946537817	56.48725928809237	0	0
